<?xml version="1.0" encoding="UTF-8" standalone="no"?>
<svg
   xmlns:dc="http://purl.org/dc/elements/1.1/"
   xmlns:cc="http://creativecommons.org/ns#"
   xmlns:rdf="http://www.w3.org/1999/02/22-rdf-syntax-ns#"
   xmlns:svg="http://www.w3.org/2000/svg"
   xmlns="http://www.w3.org/2000/svg"
   xmlns:sodipodi="http://sodipodi.sourceforge.net/DTD/sodipodi-0.dtd"
   xmlns:inkscape="http://www.inkscape.org/namespaces/inkscape"
   height="288"
   viewBox="0 0 247.03999 288"
   width="247.04"
   version="1.1"
   id="svg854"
   sodipodi:docname="guelph_alert_logo.svg"
   inkscape:version="0.92.5 (0.92.5+69)"
   inkscape:export-filename="/home/woudie/practice/python/guelph_alert/Assets/Logo/guelph_alert_logo.png"
   inkscape:export-xdpi="96"
   inkscape:export-ydpi="96">
  <metadata
     id="metadata860">
    <rdf:RDF>
      <cc:Work
         rdf:about="">
        <dc:format>image/svg+xml</dc:format>
        <dc:type
           rdf:resource="http://purl.org/dc/dcmitype/StillImage" />
        <dc:title></dc:title>
      </cc:Work>
    </rdf:RDF>
  </metadata>
  <defs
     id="defs858" />
  <sodipodi:namedview
     pagecolor="#ffffff"
     bordercolor="#666666"
     borderopacity="1"
     objecttolerance="10"
     gridtolerance="10"
     guidetolerance="10"
     inkscape:pageopacity="0"
     inkscape:pageshadow="2"
     inkscape:window-width="1855"
     inkscape:window-height="1056"
     id="namedview856"
     showgrid="false"
     inkscape:zoom="3.3263889"
     inkscape:cx="123.21937"
     inkscape:cy="144"
     inkscape:window-x="1985"
     inkscape:window-y="24"
     inkscape:window-maximized="1"
     inkscape:current-layer="svg854" />
  <path
     d="m105.39 229.7c-16.678-3.58-30.916-11.31-43.311-23.54-32.9-32.44-34.738-83.86-4.27-119.47 25.18-29.439 69.421-38.06 104.69-20.403 22.482 11.256 38.93 31.433 45.265 55.526 1.8134 6.8973 3.5013 20.157 3.0867 24.249l-0.26007 2.5669-3.4417-4.7409c-7.5072-10.341-18.883-16.197-33.894-17.449-6.3888-0.5328-6.4415-0.55508-4.1676-1.7596 4.3401-2.2988 15.95-2.1558 29.103 0.3586l2.8 0.53522-3.1255-2.5256c-8.0144-6.4763-14.836-8.8131-28.074-9.6168l-9.6-0.58283 3.2-1.4717c4.5758-2.1045 13.777-2.474 22.204-0.8918 3.8519 0.72327 7.6319 1.5154 8.4 1.7602 2.897 0.92337-6.0085-6.0811-10.604-8.34-9.9353-4.8842-19.463-5.3235-31.056-1.4319-3.3979 1.1406-6.4776 2.0739-6.844 2.0739-0.36628 0-0.15975-1.89 0.45877-4.2 1.0345-3.863 0.83803-14.947-0.29805-16.815-0.20575-0.3382-1.4241 1.4867-2.7076 4.0553-1.2836 2.5686-3.5832 6.0853-5.1103 7.8149l-2.7766 3.1447-0.0333-2.7474c-0.0702-5.8036-4.3853-11.261-10.274-12.994-1.638-0.48205-1.5372-0.206 0.9167 2.5101 3.4847 3.8572 4.203 6.9357 2.5442 10.906-2.2686 5.4297-5.112 8.188-15.451 14.99-10.722 7.0532-18.64 14.538-21.368 20.198-0.8319 1.7261-1.6628 5.3642-1.8466 8.0847l-0.33405 4.9464-4.5102 2.9927c-6.4676 4.2915-12.52 10.927-15.516 17.009-2.4029 4.8791-2.5944 5.8596-2.5944 13.287 0 6.4994 0.35958 8.9664 1.8976 13.019 1.0436 2.75 2.1736 5 2.511 5s0.86438-1.3376 1.171-2.9724c1.6439-8.7626 10.03-16.632 21.162-19.858 3.4699-1.0057 6.3103-1.4521 15.059-2.3666l3.8-0.39725-5.5672 2.0928c-6.6206 2.4887-10.924 5.0473-15.129 8.9949-3.2849 3.0836-7.7034 8.7062-7.7034 9.8027 0 0.3607 2.07-0.59695 4.6-2.1281 10.019-6.0636 25.748-10.532 33.657-9.561 8.1858 1.0048 12.936 4.1035 15.835 10.33 2.8344 6.087 2.6275 12.367-0.62163 18.869-2.733 5.4692-11.281 15.05-17.5 19.616-4.249 3.1191-6.079 3.3146-14.371 1.5355zm98.795-75.108c-4.9429-5.0497-11.046-9.013-18.779-12.195l-4.4154-1.8167 3.0846-0.02c5.902-0.0362 16.337 3.4454 23.115 7.7125 2.7198 1.7122 2.9948 2.2052 2.9438 5.2786-0.105 6.3304-0.67282 6.4296-5.9491 1.0393zm-96.307-8.4032c-1.052-0.26237-2.3827-1.1901-2.9572-2.0616-0.9507-1.4422-0.64047-1.9078 3.4545-5.1846 2.4744-1.98 5.0652-4.7618 5.7572-6.1818s1.4862-2.59 1.7649-2.6c0.80142-0.0287 1.4705 3.2544 1.4824 7.274 0.0175 5.8546-4.4872 10.005-9.5018 8.754z"
     stroke="#060430"
     stroke-width="3"
     fill="#c20430"
     id="path848" />
  <text
     style="word-spacing:0px;letter-spacing:0px;stroke:none;stroke-opacity:1;stroke-width:4;stroke-miterlimit:4;stroke-dasharray:none;fill:#c20430;fill-opacity:1;"
     xml:space="preserve"
     transform="rotate(-41.606)"
     line-height="1.25"
     font-size="10px"
     y="286.59396"
     x="-17.95787"
     font-family="sans-serif"
     fill="#000000"
     id="text852"><tspan
       style="font-variant-numeric:normal;font-variant-ligatures:normal;font-variant-caps:normal;font-feature-settings:normal;stroke:none;stroke-opacity:1;stroke-width:4;stroke-miterlimit:4;stroke-dasharray:none;fill:#c20430;fill-opacity:1;"
       font-family="sans-serif"
       font-size="116.67px"
       y="286.59396"
       x="-17.95787"
       stroke-width="0.25"
       id="tspan850">!</tspan></text>
</svg>
